<!-- Generator: Adobe Illustrator 19.1.0, SVG Export Plug-In  -->
<svg version="1.1"
	 xmlns="http://www.w3.org/2000/svg" xmlns:xlink="http://www.w3.org/1999/xlink" xmlns:a="http://ns.adobe.com/AdobeSVGViewerExtensions/3.0/"
	 x="0px" y="0px" width="151px" height="122.5px" viewBox="0 0 151 122.5" style="enable-background:new 0 0 151 122.5;"
	 xml:space="preserve">
<style type="text/css">
	.st0{fill:#E04C2B;}
</style>
<defs>
</defs>
<g>
	<polygon class="st0" points="151,48.4 135.1,59.6 148.8,73.4 129.5,76 136.5,94.2 117.4,89.8 118.3,109.3 101.3,99.6 97,118.6 
		82.9,105 74.2,122.5 63.8,105.9 51,120.7 45.3,102 28.9,112.5 29.4,93.1 10.2,96.9 18.7,79.4 0,74.1 15.9,62.9 2.1,49.1 21.4,46.5 
		14.5,28.2 33.5,32.7 32.7,13.2 49.7,22.9 54,3.9 68,17.5 76.8,0 87.2,16.6 100,1.8 105.6,20.5 122.1,9.9 121.6,29.4 140.7,25.6 
		132.3,43.1 	"/>
	<polygon class="st0" points="151,48.4 135.1,59.6 148.8,73.4 129.5,76 136.5,94.2 117.4,89.8 118.3,109.3 101.3,99.6 97,118.6 
		82.9,105 74.2,122.5 63.8,105.9 51,120.7 45.3,102 28.9,112.5 29.4,93.1 10.2,96.9 18.7,79.4 0,74.1 15.9,62.9 2.1,49.1 21.4,46.5 
		14.5,28.2 33.5,32.7 32.7,13.2 49.7,22.9 54,3.9 68,17.5 76.8,0 87.2,16.6 100,1.8 105.6,20.5 122.1,9.9 121.6,29.4 140.7,25.6 
		132.3,43.1 	"/>
</g>
</svg>
